<?xml version="1.0" encoding="utf-8"?>
<!-- Generator: Adobe Illustrator 24.1.0, SVG Export Plug-In . SVG Version: 6.00 Build 0)  -->
<svg version="1.1" xmlns="http://www.w3.org/2000/svg" xmlns:xlink="http://www.w3.org/1999/xlink" x="0px" y="0px"
	 viewBox="0 0 409.58 180.28" style="enable-background:new 0 0 409.58 180.28;" xml:space="preserve">
<style type="text/css">
	.st0{fill:#FFFFFF;}
	.st1{display:none;}
	.st2{display:inline;fill:#231815;}
	.st3{clip-path:url(#SVGID_2_);fill:#FFFFFF;stroke:#000000;stroke-miterlimit:10;}
	.st4{clip-path:url(#SVGID_4_);fill:#FFFFFF;stroke:#000000;stroke-miterlimit:10;}
	.st5{clip-path:url(#SVGID_6_);fill:#FFFFFF;stroke:#000000;stroke-miterlimit:10;}
	.st6{clip-path:url(#SVGID_8_);fill:#FFFFFF;stroke:#000000;stroke-miterlimit:10;}
	.st7{clip-path:url(#SVGID_10_);fill:#FFFFFF;stroke:#000000;stroke-miterlimit:10;}
	.st8{clip-path:url(#SVGID_12_);fill:#FFFFFF;stroke:#000000;stroke-miterlimit:10;}
	.st9{clip-path:url(#SVGID_14_);fill:#FFFFFF;stroke:#000000;stroke-miterlimit:10;}
	.st10{clip-path:url(#SVGID_16_);fill:#FFFFFF;stroke:#000000;stroke-miterlimit:10;}
	.st11{opacity:0.3;}
	.st12{fill:#FFFFFF;stroke:#000000;stroke-miterlimit:10;}
</style>
<g id="bg">
	<rect x="-43.53" y="-25.12" class="st0" width="501" height="240"/>
</g>
<g id="pporg">
	<g id="Layer_76_copy_2">
	</g>
	<g id="Layer_76_copy_3">
		<g>
			<path d="M320.58,177.46c-5.89,0-12.08-0.49-18.4-1.47l-2.33-0.36l2.07-1.13c13.38-7.34,21.2-17.72,22.88-20.1l-13.59-15.3
				l26.83-11.63c0.27-2.81,0.25-5.67-0.07-8.54c-4.17,1.43-8.83,2.15-13.85,2.15c-4.57,0-9.64-0.57-15.52-1.75l-1.51-0.3l-10.31,7.3
				l-2.49-6l-39.44,2.52l-1.72-4.06l-0.47,4.2l-44.43,2.84l0.92-8.32c-6.48,9.54-15.81,15.09-27.08,16.11
				c-0.4,0.04-0.8,0.05-1.2,0.05c-4.39,0-8.47-2.16-10.96-5.78c-0.91-0.67-1.71-1.42-2.38-2.24c-0.17-0.21-0.34-0.44-0.52-0.69
				c-0.22,0.01-0.44,0.02-0.66,0.02c-3.3,0-6.46-1.22-8.91-3.43c-0.25-0.22-0.49-0.46-0.72-0.7l-0.95,8.47L117,131.8l2.16-19.43
				c-1.88,0.31-3.81,0.53-5.74,0.65l-0.81,0.05l-2.08,18.74l-44.43,2.84l2.54-22.83c-5.86,3.08-12.64,4.89-20.18,5.37l-0.81,0.05
				l-2.08,18.74l-44.43,2.84l10.51-94.56l40.56-2.59c1.34-0.08,2.66-0.13,3.92-0.13c7.68,0,14.33,1.59,19.79,4.72l0.69-6.17
				l40.56-2.59c1.34-0.08,2.66-0.13,3.92-0.13c10.38,0,18.8,2.86,25.03,8.51c0.38,0.34,0.78,0.73,1.22,1.2
				c1.37-0.15,2.67-0.47,3.87-0.96c3.8-6.28,9.14-8.23,12.25-8.83c4.34-7.68,11.06-9.27,13.78-9.59c0.68-0.08,1.37-0.12,2.07-0.12
				c3.23,0,6.6,0.92,9.79,2.66c3.73-2.39,7.33-2.9,9.72-2.9c2.15,0,4.27,0.39,6.32,1.17c1.02,0.39,1.99,0.9,2.88,1.52
				c3.48,2.43,6.35,5.45,8.55,9c0.22,0.35,0.42,0.72,0.61,1.09c0.16,0.32,0.31,0.64,0.46,0.97l1.09-9.83l41.23-2.63
				c1.4-0.09,2.8-0.14,4.15-0.14c10.49,0,19.01,2.79,25.33,8.3c0.06,0.05,0.12,0.11,0.19,0.16l9.48-38.12l15.3,30.07
				c11.33-6.08,25.48-10.55,43.23-13.68l26.87-4.73L362.6,51.61l1.46,1.48c11.14,11.29,19.04,25.13,22.85,40.04
				c3.92,15.38,3.22,30.84-2.03,44.71c-0.24,0.63-0.51,1.3-0.81,2.02l27.53,11.98l-41.2,8.68c-0.85,0.91-4.61,4.64-11.79,8.41
				C351.21,172.83,338.6,177.46,320.58,177.46C320.58,177.46,320.58,177.46,320.58,177.46z"/>
			<path class="st0" d="M299.37,1.11L314.07,30c11.32-6.2,25.83-10.84,43.71-13.99l25.25-4.45L370.97,34.2l-8.77,16.46l-0.58,1.09
				l1.87,1.9c11.04,11.19,18.87,24.91,22.64,39.68c3.88,15.22,3.19,30.51-2,44.23c-0.34,0.91-0.72,1.82-1.11,2.72l25.96,11.3
				l-38.31,8.07l-0.69,0.14c0,0-14.85,16.87-49.41,16.87c-5.57,0-11.66-0.44-18.28-1.46c15.5-8.5,23.51-20.87,23.51-20.87
				l-1.82-2.05l-11.45-12.9l15.83-6.86l10.04-4.36l0.38-0.16c0.36-3.35,0.31-6.76-0.15-10.17c-4.33,1.62-9.17,2.44-14.52,2.44
				c-4.51,0-9.54-0.57-15.36-1.73l-1.85-0.37l-9.78,6.92l-2.32-5.6l-10.82,0.69l-19.78,1.26l-8.85,0.57l-2.69-6.36l-0.73,6.57
				l-10.46,0.67l-17.48,1.12l-14.86,0.95l1.09-9.78c-0.26,0.15-0.52,0.3-0.79,0.43c-6.36,10.21-15.81,16.16-27.43,17.2
				c-0.38,0.03-0.75,0.05-1.13,0.05c-4.22,0-8.09-2.14-10.37-5.54c-0.85-0.62-1.65-1.34-2.34-2.18c-0.27-0.33-0.51-0.67-0.74-1.02
				c-0.35,0.03-0.71,0.05-1.06,0.05c-3.02,0-6.02-1.09-8.38-3.22c-0.7-0.63-1.31-1.34-1.84-2.08l-0.77,6.88l-0.31,2.81l-10.46,0.67
				l-11.82,0.76l-14.86,0.95l1.65-14.8l0.53-4.74c-2.16,0.4-4.39,0.67-6.71,0.82l-1.48,0.09l-0.92,8.32l-1.16,10.42l-10.46,0.67
				l-17.48,1.12L67,133.79l1.65-14.8l0.96-8.61c-6.06,3.48-13.15,5.5-21.19,6.02l-1.48,0.09l-0.92,8.32l-1.16,10.42l-10.47,0.67
				l-17.48,1.12l-14.86,0.95l1.65-14.8l7.53-67.72l1.16-10.42l10.46-0.67l29.42-1.88c1.32-0.08,2.62-0.13,3.87-0.13
				c8.07,0,14.93,1.77,20.45,5.24l0.75-6.74l10.46-0.67l29.42-1.88c1.32-0.08,2.62-0.13,3.87-0.13c10.18,0,18.42,2.79,24.5,8.3
				c0.48,0.44,0.97,0.92,1.45,1.44c1.52-0.13,3.13-0.47,4.73-1.16c3.78-6.43,9.27-8.25,12.21-8.74c4.1-7.55,10.52-9.18,13.36-9.52
				c0.65-0.08,1.31-0.11,1.97-0.11c3.31,0,6.69,1,9.82,2.8c3.55-2.4,7.03-3.04,9.69-3.04c2.05,0,4.08,0.38,6.04,1.12
				c0.96,0.36,1.87,0.85,2.71,1.43c3.39,2.36,6.19,5.31,8.33,8.76c0.21,0.33,0.4,0.68,0.57,1.03c0.64,1.29,1.17,2.61,1.61,3.95
				l0.22-1.99l1.16-10.42l10.47-0.67l30.09-1.92c1.39-0.09,2.77-0.13,4.1-0.13c10.29,0,18.64,2.73,24.81,8.1
				c0.38,0.33,0.77,0.7,1.16,1.07l1.21-4.86L299.37,1.11 M298.85-3.44l-1.03,4.16l-8.08,32.49l-0.57,2.29
				c-6.38-5.19-14.8-7.82-25.05-7.82c-1.36,0-2.77,0.05-4.2,0.14l-30.09,1.92l-10.46,0.67l-1.34,0.09l-0.15,1.33l-0.73,6.57
				c-2.24-3.55-5.15-6.59-8.65-9.04c-0.95-0.66-1.97-1.2-3.05-1.62c-2.14-0.81-4.36-1.23-6.61-1.23c-3.41,0-6.76,0.96-9.75,2.78
				c-3.18-1.66-6.53-2.54-9.75-2.54c-0.72,0-1.45,0.04-2.16,0.13c-2.81,0.34-9.68,1.95-14.2,9.68c-3.25,0.7-8.48,2.77-12.28,8.89
				c-0.96,0.36-1.97,0.62-3.03,0.76c-0.35-0.35-0.67-0.67-0.98-0.94c-6.38-5.78-14.99-8.72-25.57-8.72c-1.29,0-2.62,0.04-3.97,0.13
				L87.7,38.58l-10.46,0.67l-1.34,0.09l-0.15,1.33l-0.48,4.32c-5.37-2.81-11.8-4.24-19.13-4.24c-1.29,0-2.62,0.04-3.97,0.13
				l-29.42,1.88l-10.46,0.67l-1.34,0.09l-0.15,1.33L9.62,55.26l-7.53,67.72l-1.65,14.8l-0.21,1.9l1.9-0.12L17,138.61l17.48-1.12
				l10.47-0.67l1.34-0.09l0.15-1.33l1.16-10.42l0.78-6.99l0.14-0.01c7.09-0.45,13.52-2.06,19.17-4.79l-0.62,5.61l-1.65,14.8
				l-0.21,1.9l1.9-0.12l14.86-0.95l17.48-1.12l10.46-0.67l1.34-0.09l0.15-1.33l1.16-10.42l0.78-6.99l0.14-0.01
				c1.6-0.1,3.2-0.27,4.78-0.5l-0.29,2.65l-1.65,14.8l-0.21,1.9l1.9-0.12l14.86-0.95l11.82-0.76l10.46-0.67l1.34-0.09l0.15-1.33
				l0.31-2.81l0.38-3.41c2.53,2.1,5.71,3.25,9.01,3.25c0.09,0,0.18,0,0.27,0c0.1,0.13,0.2,0.26,0.3,0.38
				c0.69,0.84,1.5,1.61,2.41,2.3c2.64,3.77,6.93,6.02,11.54,6.02c0.42,0,0.85-0.02,1.27-0.06c10.52-0.95,19.39-5.76,25.89-14.01
				l-0.49,4.39l-0.21,1.9l1.9-0.12l14.86-0.95l17.48-1.12l10.47-0.67l1.34-0.09l0.15-1.33l0.05-0.48l0.3,0.71l0.44,1.05l1.13-0.07
				l8.85-0.57l19.78-1.26l9.68-0.62l1.89,4.55l0.77,1.85l1.63-1.16l9.22-6.52l1.17,0.23c5.93,1.19,11.06,1.76,15.68,1.76
				c4.73,0,9.14-0.63,13.15-1.88c0.2,2.32,0.21,4.64,0.02,6.92l-9.56,4.14l-15.83,6.86l-2.03,0.88l1.47,1.65l11.45,12.9l0.98,1.1
				c-2.23,3.05-9.81,12.53-22.25,19.35l-4.13,2.27l4.66,0.72c6.36,0.98,12.59,1.48,18.52,1.48c32.32,0,47.66-14.33,50.24-17
				l0.19-0.04l38.31-8.07l4.9-1.03l-4.6-2l-24.51-10.66c0.19-0.46,0.36-0.9,0.52-1.32c5.31-14.02,6.02-29.65,2.05-45.19
				c-3.84-15.05-11.81-29.02-23.05-40.41l-1.05-1.06l0.03-0.06l8.77-16.46l12.06-22.63l1.54-2.9l-3.23,0.57l-25.25,4.45
				c-17.46,3.07-31.46,7.46-42.75,13.38L300.8,0.39L298.85-3.44L298.85-3.44z"/>
		</g>
	</g>
	<g id="Layer_82_copy">
		<g id="Layer_75" class="st1">
			<rect x="39.97" y="-147.38" class="st2" width="239.5" height="112.75"/>
		</g>
		<g>
			<defs>
				<path id="SVGID_1_" d="M215.88,82.14c-1.24-8.18-7.43-14.92-15.06-16.37c-8.45-1.62-17.03,3.59-23.73,14.31
					c1.94,2.79,4.33,5.11,7.18,7.06c16.4-23,31.11-11.15,13.41,5.52c0.49,0.11,0.96,0.25,1.47,0.35l1.58,0.32l3.1,11.12
					C212.81,98.7,217.18,90.7,215.88,82.14z"/>
			</defs>
			<use xlink:href="#SVGID_1_"  style="overflow:visible;fill:#FFFFFF;"/>
			<clipPath id="SVGID_2_">
				<use xlink:href="#SVGID_1_"  style="overflow:visible;"/>
			</clipPath>
			<rect x="149.31" y="39.1" class="st3" width="71.67" height="85.68"/>
			<use xlink:href="#SVGID_1_"  style="overflow:visible;fill:none;stroke:#000000;stroke-miterlimit:10;"/>
		</g>
		<g>
			<defs>
				<path id="SVGID_3_" d="M166.87,68.07c-1.3-1.85-3.54-2.87-5.59-2.53c-1.91,0.32-3.33,1.77-4.01,4.1
					c-0.3,1.16-0.14,1.85,0.1,2.06c0.2,0.18,0.68,0.26,1.21,0.06c0.45-0.17,1.24-0.64,1.41-1.95c0.19-1.45,1.52-2.45,2.95-2.28
					c1.45,0.19,2.47,1.51,2.28,2.96c-0.38,2.93-2.18,5.26-4.82,6.23c-1.1,0.41-2.24,0.52-3.32,0.38c2.22,2.79,5.64,3.86,9.49,0.92
					C168.46,74.12,168.6,70.54,166.87,68.07z"/>
			</defs>
			<use xlink:href="#SVGID_3_"  style="overflow:visible;fill:#FFFFFF;"/>
			<clipPath id="SVGID_4_">
				<use xlink:href="#SVGID_3_"  style="overflow:visible;"/>
			</clipPath>
			<rect x="149.31" y="39.1" class="st4" width="71.67" height="85.68"/>
			<use xlink:href="#SVGID_3_"  style="overflow:visible;fill:none;stroke:#000000;stroke-miterlimit:10;"/>
		</g>
		<g>
			<defs>
				<path id="SVGID_5_" d="M194.49,46.14c0.48-0.02,1.38-0.24,1.93-1.44c0.61-1.32,2.17-1.91,3.5-1.29c1.33,0.61,1.9,2.18,1.3,3.5
					c-1.14,2.47-3.28,4.08-5.8,4.43c0.67,3.01,0.66,6.07-0.06,9c2.13-0.24,4.29-0.16,6.46,0.25c1.11,0.21,2.19,0.52,3.24,0.9
					c0,0,0-0.01,0.01-0.01c3.02-4.97,2.36-11.12,0.21-15.44c-0.19-0.15-4.92-9.83-11.42-2.27c-0.61,1.02-0.65,1.69-0.5,1.95
					C193.49,45.94,193.92,46.17,194.49,46.14z"/>
			</defs>
			<use xlink:href="#SVGID_5_"  style="overflow:visible;fill:#FFFFFF;"/>
			<clipPath id="SVGID_6_">
				<use xlink:href="#SVGID_5_"  style="overflow:visible;"/>
			</clipPath>
			<rect x="149.31" y="39.1" class="st5" width="71.67" height="85.68"/>
			<use xlink:href="#SVGID_5_"  style="overflow:visible;fill:none;stroke:#000000;stroke-miterlimit:10;"/>
		</g>
		<g>
			<defs>
				<path id="SVGID_7_" d="M172.35,77.71c1.19-1.94,2.44-3.74,3.75-5.37c0.04-0.11,0.08-0.21,0.14-0.31
					c2.75-4.87,2.34-10.84-1.08-15.97c-2.49-3.72-6.17-6.09-8.95-5.75c-1.96,0.24-3.49,1.8-4.55,4.66c-0.28,1.15-0.12,1.8,0.11,2.01
					c0.2,0.18,0.68,0.26,1.21,0.06c0.46-0.17,1.24-0.64,1.41-1.95c0.19-1.45,1.52-2.46,2.95-2.28c1.45,0.19,2.47,1.51,2.28,2.96
					c-0.29,2.27-1.45,4.17-3.18,5.37c1.86,0.82,3.52,2.16,4.75,3.91C173.62,68.51,173.96,72.99,172.35,77.71z"/>
			</defs>
			<use xlink:href="#SVGID_7_"  style="overflow:visible;fill:#FFFFFF;"/>
			<clipPath id="SVGID_8_">
				<use xlink:href="#SVGID_7_"  style="overflow:visible;"/>
			</clipPath>
			<rect x="149.31" y="39.1" class="st6" width="71.67" height="85.68"/>
			<use xlink:href="#SVGID_7_"  style="overflow:visible;fill:none;stroke:#000000;stroke-miterlimit:10;"/>
		</g>
		<g>
			<defs>
				<path id="SVGID_9_" d="M175.56,47.64c0.45-0.17,1.24-0.64,1.41-1.95c0.19-1.45,1.52-2.45,2.95-2.28
					c1.45,0.19,2.47,1.51,2.28,2.96c-0.31,2.43-1.61,4.42-3.54,5.6c0.3,0.39,0.6,0.76,0.88,1.18c2.56,3.83,3.78,8.04,3.74,12.17
					c1.9-1.4,3.85-2.52,5.86-3.35c2.36-4.74,1.87-10.4-1.4-15.3c-2.49-3.73-6.17-6.08-8.95-5.75c-1.96,0.24-3.49,1.8-4.55,4.66
					c-0.28,1.15-0.12,1.8,0.11,2.01C174.55,47.75,175.03,47.83,175.56,47.64z"/>
			</defs>
			<use xlink:href="#SVGID_9_"  style="overflow:visible;fill:#FFFFFF;"/>
			<clipPath id="SVGID_10_">
				<use xlink:href="#SVGID_9_"  style="overflow:visible;"/>
			</clipPath>
			<rect x="149.31" y="39.1" class="st7" width="71.67" height="85.68"/>
			<use xlink:href="#SVGID_9_"  style="overflow:visible;fill:none;stroke:#000000;stroke-miterlimit:10;"/>
		</g>
		<g>
			<defs>
				<path id="SVGID_11_" d="M196.51,97.83c-10.42-2.4-18.04-6.96-23.19-13.89l-5.81,4.37l-0.52,0.13c-4.98,1.25-8.22,3.31-9.93,6.31
					c-1.59,2.78-1.94,6.45-1.05,11.35l6.93-8.94h18.48c3.05-0.11,6.32,0.29,9.77,1.39l1.7,0.54l0.14,2.42
					c-0.09,8.78-4.09,15.02-12.15,18.85c8.13-0.73,14.15-4.75,18.49-12.25L196.51,97.83z"/>
			</defs>
			<use xlink:href="#SVGID_11_"  style="overflow:visible;fill:#FFFFFF;"/>
			<clipPath id="SVGID_12_">
				<use xlink:href="#SVGID_11_"  style="overflow:visible;"/>
			</clipPath>
			<rect x="149.31" y="39.1" class="st8" width="71.67" height="85.68"/>
			<use xlink:href="#SVGID_11_"  style="overflow:visible;fill:none;stroke:#000000;stroke-miterlimit:10;"/>
		</g>
		<g>
			<defs>
				<path id="SVGID_13_" d="M180.77,111.17c-0.78,2.38-1.81,4.35-2.95,6.04c4.32-1.83,7.02-4.18,8.67-6.72
					C184.66,110.7,182.61,110.94,180.77,111.17z"/>
			</defs>
			<use xlink:href="#SVGID_13_"  style="overflow:visible;fill:#FFFFFF;"/>
			<clipPath id="SVGID_14_">
				<use xlink:href="#SVGID_13_"  style="overflow:visible;"/>
			</clipPath>
			<rect x="149.31" y="39.1" class="st9" width="71.67" height="85.68"/>
			<use xlink:href="#SVGID_13_"  style="overflow:visible;fill:none;stroke:#000000;stroke-miterlimit:10;"/>
		</g>
		<g>
			<defs>
				<path id="SVGID_15_" d="M185.33,105.31c0.31-0.03,0.6-0.07,0.87-0.1l0.79-2.32c-0.83-0.18-1.62-0.3-2.39-0.38
					c-0.77-0.08-1.5-0.12-2.21-0.12c0,0-0.01,0-0.01,0l0,0c-0.02,0-0.03,0-0.05,0c-6.11,0-10.24,2.74-12.45,4.73
					c-1.78,1.61-2.9,3.26-3.52,4.55c1.13-0.7,2.38-1.53,3.24-2.1c2.62-1.74,3.92-2.59,5.01-2.85c1.02-0.24,4.34-0.66,7.45-1.03
					c1.14-0.14,2.24-0.26,3.2-0.37C185.28,105.32,185.31,105.32,185.33,105.31z"/>
			</defs>
			<use xlink:href="#SVGID_15_"  style="overflow:visible;fill:#FFFFFF;"/>
			<clipPath id="SVGID_16_">
				<use xlink:href="#SVGID_15_"  style="overflow:visible;"/>
			</clipPath>
			<rect x="149.31" y="39.1" class="st10" width="71.67" height="85.68"/>
			<use xlink:href="#SVGID_15_"  style="overflow:visible;fill:none;stroke:#000000;stroke-miterlimit:10;"/>
		</g>
		<g>
			<path class="st0" d="M24.44,57.67l28.68-1.83c1.03-0.07,2.05-0.1,3.02-0.1c6.75,0,11.97,1.63,15.51,4.83
				c4.01,3.63,5.63,9.12,4.83,16.32c-0.86,7.73-3.84,13.95-8.85,18.49c-5.03,4.55-11.78,7.13-20.06,7.66l-12.69,0.81l-2.08,18.74
				l-15.67,1L24.44,57.67z M51.89,68.17c-0.43,0-0.86,0.01-1.32,0.04l-11.83,0.76l-2.51,22.57l12.14-0.78
				c3.76-0.24,6.82-1.41,9.1-3.46c2.3-2.07,3.67-4.95,4.07-8.58c0.4-3.56-0.39-6.3-2.35-8.14C57.51,68.98,55.05,68.17,51.89,68.17z"
				/>
			<path d="M56.13,56.63c6.52,0,11.53,1.55,14.9,4.6c3.84,3.48,5.32,8.57,4.54,15.56c-0.83,7.5-3.71,13.53-8.56,17.92
				c-4.87,4.41-11.44,6.91-19.52,7.43l-11.94,0.76l-1.49,0.1l-0.17,1.49l-1.92,17.25l-13.86,0.89l7.13-64.12l27.93-1.78
				C54.19,56.66,55.18,56.63,56.13,56.63 M35.23,92.5l2.12-0.14l11.08-0.71c3.96-0.25,7.21-1.49,9.64-3.69
				c2.47-2.22,3.94-5.29,4.36-9.14c0.43-3.85-0.45-6.85-2.62-8.89c-1.87-1.76-4.54-2.66-7.93-2.66c-0.44,0-0.9,0.02-1.37,0.05
				l-11.08,0.71l-1.49,0.1l-0.17,1.49l-2.31,20.77L35.23,92.5 M56.13,54.84c-0.99,0-2.02,0.03-3.08,0.1l-29.42,1.88l-7.53,67.72
				l17.48-1.12l2.08-18.74l11.94-0.76c8.53-0.55,15.4-3.17,20.61-7.89c5.2-4.71,8.25-11.06,9.14-19.05
				c0.84-7.54-0.87-13.23-5.12-17.08C68.51,56.53,63.14,54.84,56.13,54.84L56.13,54.84z M37.24,90.58l2.31-20.77l11.08-0.71
				c0.43-0.03,0.85-0.04,1.26-0.04c2.94,0,5.17,0.72,6.71,2.17c1.75,1.65,2.44,4.11,2.07,7.4c-0.38,3.41-1.64,6.08-3.78,8.01
				c-2.14,1.93-5,3.01-8.56,3.23L37.24,90.58L37.24,90.58z"/>
		</g>
		<g>
			<path class="st0" d="M89.4,53.49l28.68-1.83c1.03-0.07,2.05-0.1,3.02-0.1c6.75,0,11.97,1.63,15.5,4.83
				c4.01,3.63,5.63,9.12,4.83,16.32c-0.86,7.73-3.84,13.95-8.85,18.49c-5.03,4.55-11.78,7.13-20.06,7.66l-12.69,0.81l-2.08,18.74
				l-15.67,1L89.4,53.49z M116.85,63.99c-0.42,0-0.86,0.01-1.31,0.04l-11.83,0.76l-2.51,22.57l12.14-0.78
				c3.75-0.24,6.82-1.4,9.1-3.46c2.3-2.07,3.67-4.95,4.07-8.57c0.4-3.56-0.39-6.3-2.35-8.15C122.47,64.8,120.01,63.99,116.85,63.99z
				"/>
			<path d="M121.1,52.45c6.52,0,11.53,1.55,14.9,4.6c3.84,3.48,5.32,8.57,4.54,15.56c-0.83,7.5-3.71,13.53-8.56,17.92
				c-4.87,4.41-11.44,6.91-19.52,7.43l-11.94,0.76l-1.49,0.1l-0.17,1.49l-1.92,17.25l-13.86,0.89l7.13-64.12l27.93-1.78
				C119.15,52.48,120.15,52.45,121.1,52.45 M100.19,88.32l2.12-0.14l11.08-0.71c3.96-0.25,7.21-1.49,9.64-3.69
				c2.47-2.22,3.94-5.29,4.36-9.14c0.43-3.85-0.45-6.85-2.62-8.89c-1.87-1.76-4.54-2.66-7.93-2.66c-0.44,0-0.9,0.02-1.37,0.05
				l-11.08,0.71l-1.49,0.1l-0.17,1.49l-2.31,20.77L100.19,88.32 M121.1,50.66c-0.99,0-2.02,0.03-3.08,0.1L88.6,52.65l-7.53,67.72
				l17.48-1.12l2.08-18.74l11.94-0.76c8.53-0.55,15.4-3.17,20.61-7.89c5.2-4.71,8.25-11.06,9.14-19.05
				c0.84-7.53-0.87-13.23-5.12-17.08C133.47,52.35,128.11,50.66,121.1,50.66L121.1,50.66z M102.2,86.41l2.31-20.77l11.08-0.71
				c0.43-0.03,0.85-0.04,1.26-0.04c2.94,0,5.17,0.72,6.71,2.17c1.75,1.65,2.44,4.11,2.07,7.4c-0.38,3.41-1.64,6.08-3.78,8.01
				c-2.14,1.93-5,3.01-8.56,3.23L102.2,86.41L102.2,86.41z"/>
		</g>
		<g>
			<polygon class="st0" points="133.72,109.87 133.82,109.07 134.02,107.23 144.04,106.54 143.29,113.35 143.19,114.09 
				142.99,115.92 132.98,116.56 			"/>
			<path d="M143.04,107.5l-0.56,5.01l-0.01,0l-0.16,1.48l-0.12,1.09l-8.2,0.52l0.55-4.94l0.01,0l0.17-1.49l0.12-1.1L143.04,107.5
				 M145.05,105.57l-11.83,0.82l-0.29,2.58l-0.01,0l-0.95,8.55l11.82-0.76l0.29-2.58l0.01,0L145.05,105.57L145.05,105.57z"/>
		</g>
		<g>
			<g>
				<path class="st0" d="M231.53,44.67l29.35-1.88c1.11-0.07,2.2-0.11,3.24-0.11c6.96,0,12.35,1.62,16.01,4.8
					c4.16,3.62,5.86,9.11,5.06,16.3c-0.55,4.93-2.02,9.3-4.39,13c-2.36,3.69-5.57,6.69-9.53,8.92l-0.77,0.43l11.24,20.78
					l-17.75,1.13l-7.66-18.12l-14.37,0.92l-2.08,18.74l-15.67,1L231.53,44.67z M260.6,55.06c-0.42,0-0.86,0.01-1.31,0.04
					l-13.45,0.86l-2.51,22.57l13.77-0.88c3.75-0.24,6.82-1.4,9.1-3.46c2.3-2.07,3.67-4.95,4.07-8.57c0.4-3.56-0.39-6.3-2.35-8.15
					C266.22,55.88,263.76,55.06,260.6,55.06z"/>
			</g>
			<g>
				<path d="M264.11,43.58L264.11,43.58c6.74,0,11.93,1.54,15.42,4.59c3.98,3.47,5.53,8.54,4.76,15.52
					c-0.53,4.79-1.96,9.03-4.25,12.62c-2.28,3.57-5.38,6.47-9.22,8.62l-1.53,0.86l0.84,1.55l10.16,18.78l-15.73,1.01l-7.17-16.95
					l-0.49-1.17l-1.26,0.08l-0.38,0.02l-12.61,0.81l-1.49,0.1l-0.17,1.49l-1.92,17.25l-13.86,0.89l7.13-64.12l28.6-1.83
					C262.02,43.61,263.09,43.58,264.11,43.58 M242.32,79.5l2.12-0.14l12.71-0.81c3.96-0.25,7.21-1.49,9.64-3.69
					c2.47-2.22,3.94-5.29,4.36-9.14c0.43-3.85-0.45-6.85-2.62-8.89c-1.87-1.76-4.54-2.66-7.93-2.66c-0.44,0-0.9,0.02-1.37,0.05
					l-12.71,0.81l-1.49,0.1l-0.17,1.49l-2.31,20.77L242.32,79.5 M264.11,41.79c-1.06,0-2.16,0.04-3.3,0.11l-30.09,1.92l-7.53,67.72
					l17.48-1.12l2.08-18.74l12.61-0.81l0.38-0.02l7.66,18.12l19.78-1.26L271.7,86.48c4.11-2.31,7.39-5.38,9.85-9.21
					c2.45-3.83,3.96-8.29,4.52-13.38c0.84-7.54-0.95-13.22-5.36-17.07C276.87,43.47,271.33,41.79,264.11,41.79L264.11,41.79z
					 M244.33,77.58l2.31-20.77L259.34,56c0.43-0.03,0.85-0.04,1.26-0.04c2.94,0,5.17,0.72,6.71,2.17c1.75,1.65,2.44,4.11,2.07,7.4
					c-0.38,3.41-1.64,6.08-3.78,8.01c-2.14,1.93-5,3.01-8.56,3.23L244.33,77.58L244.33,77.58z"/>
			</g>
		</g>
		<g class="st11">
			<path d="M230.72,44.2l30.09-1.92c1.14-0.07,2.24-0.11,3.3-0.11c7.22,0,12.75,1.68,16.6,5.03c3.8,3.31,5.64,8,5.54,14.04
				c0.18-6.23-1.67-11.04-5.54-14.42c-3.84-3.35-9.38-5.02-16.6-5.02c-1.06,0-2.16,0.04-3.3,0.11l-30.09,1.92l-7.53,67.72l0.04,0
				L230.72,44.2z"/>
			<path d="M257.03,77.14c3.57-0.23,6.42-1.3,8.56-3.23c2.14-1.93,3.4-4.6,3.78-8.01c0.09-0.85,0.11-1.63,0.07-2.37
				c0.02,0.63,0.01,1.29-0.07,2c-0.38,3.41-1.64,6.08-3.78,8.01c-2.14,1.93-5,3.01-8.56,3.23l-12.66,0.81l-0.04,0.37L257.03,77.14z"
				/>
			<path d="M268.54,56.83c-1.87-1.76-4.54-2.66-7.93-2.66c-0.44,0-0.9,0.01-1.37,0.05l-12.71,0.81l-1.5,0.1l-0.17,1.49l-2.31,20.77
				l-0.24,2.11l0.04,0l0.19-1.74l2.31-20.77l0.17-1.49l1.5-0.1l12.71-0.81c0.47-0.03,0.93-0.05,1.37-0.05
				c3.39,0,6.06,0.89,7.93,2.66c1.84,1.73,2.74,4.15,2.71,7.19C271.36,61.17,270.45,58.63,268.54,56.83z"/>
			<path d="M280.04,76.68c2.29-3.58,3.72-7.83,4.25-12.62c0.11-0.99,0.16-1.92,0.18-2.83c-0.03,0.79-0.08,1.61-0.18,2.46
				c-0.53,4.79-1.96,9.03-4.25,12.62c-2.28,3.57-5.38,6.47-9.22,8.62l-1.53,0.86l0.15,0.29l1.38-0.77
				C274.66,83.14,277.76,80.24,280.04,76.68z"/>
			<path d="M271.7,86.85l11.29,20.87l0.19-0.01l-11.34-20.96C271.8,86.79,271.75,86.82,271.7,86.85z"/>
			<polygon points="239.07,109.11 240.99,91.86 241.15,90.37 242.65,90.28 255.26,89.47 255.64,89.45 256.9,89.37 257.4,90.53 
				264.56,107.48 280.29,106.48 280.1,106.12 264.56,107.11 257.4,90.16 256.9,88.99 255.64,89.07 255.26,89.1 242.65,89.91 
				241.15,90 240.99,91.49 239.07,108.74 225.25,109.63 225.2,110 			"/>
		</g>
		<path class="st12" d="M331.5,143.45l6.83,6.18c1.92-2.85,3.56-5.99,4.84-9.37c0.08-0.2,0.14-0.41,0.21-0.61L331.5,143.45z"/>
		<path class="st12" d="M349.74,156.37c-0.12,0.02-0.23,0.02-0.35,0.02c-0.83,0-1.63-0.39-2.14-1.07c-0.58-0.77-0.7-1.79-0.32-2.68
			l6.27-14.41c0.56-1.28,2.02-1.93,3.34-1.46l12.11,4.23c1.45-2.45,2.73-5.06,3.79-7.86c8.76-23.14,1.4-51.21-17.85-70.7l0.04,3.49
			l0.25,20.81l0.01,0.83l-0.24,0.79c-1.79,5.89-4.16,10.66-7.13,14.4c5.07,12.87,5.37,26.83,0.65,39.37
			c-3.44,9.13-9.16,16.74-16.35,21.99c8.8-1.16,16.57-4.03,23.07-8.43L349.74,156.37z"/>
		<polygon class="st12" points="372.45,148 357.13,142.65 353.74,150.45 		"/>
		<path class="st12" d="M306.94,43.55l-4.17-13.66l-2.88,20.9C301.9,48.22,304.26,45.81,306.94,43.55z"/>
		<path class="st12" d="M342.56,75.56l-30.17,18.18l5.04-29.94l33.74-19.01l8.77-16.46c-31.59,5.56-51.01,15.67-59.27,30.83
			c-6.55,12.02-5.87,27.72,2.01,46.71l12.01-8.5h8.56l1.77-5.32l9.11-5.31l2.66,4.56l-7.39,4.31l-2.35,7.05h-10.69l-5.15,3.65
			c19.42,3.88,32.07,1.08,38.33-19.49l-0.25-20.81L342.56,75.56z"/>
	</g>
</g>
</svg>
